PathFileType	4	(X/Y/Z)	E:\MAC3D_DATA\2020_06_02_vinay\TPose1.trc																																																																
DataRate	CameraRate	NumFrames	NumMarkers	Units	OrigDataRate	OrigDataStartFrame	OrigNumFrames																																																												
1000	200	13	22	mm	200	1	498																																																												
Frame#	Time	RAsis			LAsis			RPsi			LPsi			RThigh1			RThigh2			RThigh3			RKneeOut			RKneeIn			LThigh1			LThigh2			LThigh3			LKneeOut			LKneeIn			MidAsis			MidPsi			MidPelvis			RHJC			LHJC			MidHJC			RKJC			LKJC		
		X1	Y1	Z1	X2	Y2	Z2	X3	Y3	Z3	X4	Y4	Z4	X5	Y5	Z5	X6	Y6	Z6	X7	Y7	Z7	X8	Y8	Z8	X9	Y9	Z9	X10	Y10	Z10	X11	Y11	Z11	X12	Y12	Z12	X13	Y13	Z13	X14	Y14	Z14	X15	Y15	Z15	X16	Y16	Z16	X17	Y17	Z17	X18	Y18	Z18	X19	Y19	Z19	X20	Y20	Z20	X21	Y21	Z21	X22	Y22	Z22
																																																																			
1	0	89.4897	1583.13	193.682	89.8147	1580.44	-81.1658	211.82	1529.76	57.0314	65.688	1601.86	53.002	11.6703	1487.62	61.5615	242.841	1025.87	194.028	252.891	1030.65	-48.0824	55.1634	1069.88	116.199	55.4212	1066.48	21.4121	173.522	765.885	269.47	104.032	708.199	277.281	188.43	708.978	247.56	109.103	541.832	272.13	99.6758	526.11	160.903	194.035	777.725	-134.602	131.633	785.65	-146.715	144.162	714.664	-148.568	129.104	543.931	-144.988	107.122	526.105	-32.9645	22.6231	348.469	301.309	-0.447199	287.791	274.965	72.7203	316.345	292.287
2	0.005	89.5028	1583.14	193.718	89.8439	1580.47	-81.1558	211.824	1529.73	57.0543	65.6971	1601.89	53.0236	11.7678	1487.63	61.5413	242.822	1025.88	194.029	252.91	1030.66	-48.0652	55.1408	1069.88	116.168	55.4272	1066.48	21.4087	173.478	765.881	269.494	104.008	708.222	277.253	188.431	708.893	247.47	109.103	541.842	272.129	99.7239	526.132	160.924	193.98	777.553	-134.357	131.629	785.639	-146.707	144.19	714.653	-148.576	129.091	543.932	-144.992	107.084	526.092	-32.9338	22.6286	348.454	301.299	-0.447101	287.825	274.963	72.7022	316.321	292.27
3	0.01	89.517	1583.14	193.72	89.8902	1580.51	-81.1197	211.854	1529.73	57.0665	65.7394	1601.91	53.0284	11.7581	1487.66	61.5514	242.775	1025.89	194.079	252.906	1030.63	-48.0507	55.1011	1069.91	116.143	55.4607	1066.5	21.3778	173.458	765.889	269.465	103.99	708.23	277.266	188.41	708.894	247.453	109.1	541.842	272.132	99.6499	526.113	160.936	194.036	777.697	-134.583	131.642	785.66	-146.714	144.192	714.649	-148.576	129.103	543.925	-144.986	107.109	526.104	-32.941	22.5825	348.496	301.305	-0.440111	287.792	274.982	72.6711	316.342	292.281
4	0.015	89.5328	1583.11	193.736	89.9163	1580.54	-81.0872	211.861	1529.72	57.0804	65.7594	1601.94	53.0345	11.8032	1487.66	61.5331	242.744	1025.89	194.077	252.939	1030.64	-48.0065	55.0979	1069.91	116.13	55.4117	1066.53	21.3814	173.415	765.91	269.481	103.915	708.186	277.263	188.382	708.919	247.498	109.089	541.855	272.133	99.7454	526.135	160.96	194.068	777.718	-134.569	131.647	785.677	-146.729	144.177	714.662	-148.523	129.106	543.938	-145.013	107.156	526.094	-32.9506	22.6043	348.457	301.274	-0.461018	287.783	274.943	72.7057	316.346	292.282
5	0.02	89.5525	1583.13	193.743	89.943	1580.56	-81.0593	211.861	1529.7	57.1319	65.8233	1601.97	53.0416	11.7954	1487.76	61.4239	242.711	1025.91	194.102	252.951	1030.64	-47.9795	55.0774	1069.93	116.102	55.011	1066.54	21.2086	173.374	765.899	269.48	103.878	708.224	277.234	188.37	709.013	247.603	109.067	541.838	272.163	99.7363	526.131	160.956	194.037	777.691	-134.587	131.683	785.641	-146.718	144.219	714.643	-148.558	129.138	543.955	-145.005	107.124	526.094	-32.9204	22.5973	348.464	301.261	-0.471562	287.791	274.931	72.6914	316.346	292.261
6	0.025	89.5707	1583.13	193.781	89.9777	1580.6	-81.0288	211.868	1529.7	57.1331	65.8467	1601.98	53.0837	11.8854	1487.68	61.4952	242.68	1025.93	194.116	252.967	1030.64	-48.001	55.0427	1069.9	116.088	54.9897	1066.5	21.1396	173.332	765.91	269.496	103.875	708.245	277.208	188.34	708.931	247.536	109.052	541.853	272.137	99.7121	526.129	160.924	194.052	777.703	-134.531	131.689	785.655	-146.705	144.213	714.626	-148.558	129.126	543.93	-145.008	107.088	526.094	-32.9155	22.5753	348.46	301.255	-0.468061	287.78	274.932	72.6931	316.371	292.266
7	0.03	89.6041	1583.14	193.817	90.005	1580.64	-81.0227	211.884	1529.67	57.1881	65.8576	1602.01	53.0943	11.8801	1487.69	61.4952	242.64	1025.94	194.13	253.006	1030.64	-47.9828	55.0133	1069.93	116.077	55.006	1066.54	21.1536	173.27	765.921	269.53	103.808	708.258	277.239	188.3	708.943	247.556	109.067	541.86	272.161	99.7051	526.132	160.932	194.062	777.693	-134.553	131.693	785.657	-146.721	144.167	714.641	-148.49	129.144	543.934	-144.994	107.106	526.117	-32.9178	22.5618	348.462	301.255	-0.501458	287.821	274.952	72.687	316.351	292.274
8	0.035	89.6074	1583.16	193.822	90.0411	1580.68	-81.0177	211.892	1529.67	57.2197	65.8945	1602.02	53.1002	11.8668	1487.71	61.5002	242.6	1025.94	194.131	252.99	1030.63	-47.9509	54.9681	1069.96	116.055	54.9625	1066.53	21.1259	173.2	765.913	269.533	103.727	708.254	277.182	188.249	708.936	247.567	109.014	541.848	272.137	99.7375	526.154	160.942	194.05	777.693	-134.526	131.698	785.659	-146.724	144.24	714.644	-148.551	129.17	543.954	-145.012	107.121	526.093	-32.9436	22.5515	348.458	301.229	-0.494884	287.808	274.923	72.6645	316.359	292.264
9	0.04	89.6293	1583.14	193.81	90.0402	1580.73	-80.9944	211.91	1529.68	57.2059	65.9156	1602.04	53.1189	11.9156	1487.71	61.4553	242.56	1025.95	194.154	252.976	1030.64	-47.9468	54.9628	1069.95	116.021	54.984	1066.54	21.0757	173.145	765.915	269.533	103.661	708.249	277.178	188.195	708.953	247.567	108.979	541.844	272.15	99.6734	526.118	160.917	194.081	777.691	-134.537	131.676	785.658	-146.728	144.237	714.635	-148.549	129.135	543.958	-145.008	107.133	526.095	-32.9335	22.5175	348.496	301.273	-0.505162	287.804	274.923	72.6374	316.353	292.244
10	0.045	89.6449	1583.13	193.824	90.0548	1580.77	-80.9579	211.926	1529.67	57.2141	65.9476	1602.05	53.0941	11.9262	1487.71	61.4705	242.528	1025.96	194.163	253.003	1030.64	-47.9489	54.9272	1069.97	116.001	54.9832	1066.57	21.0517	173.073	765.925	269.554	103.585	708.265	277.163	188.135	708.933	247.562	108.938	541.853	272.14	99.6635	526.13	160.895	194.078	777.703	-134.564	131.703	785.648	-146.727	144.252	714.644	-148.543	129.125	543.928	-145.012	107.13	526.094	-32.9381	22.5487	348.452	301.25	-0.532208	287.781	274.915	72.6262	316.336	292.265
11	0.05	89.6488	1583.12	193.827	90.0812	1580.81	-80.9433	211.948	1529.66	57.237	65.9684	1602.09	53.0828	11.942	1487.86	61.4166	242.485	1025.97	194.149	253.017	1030.64	-47.9665	54.9101	1069.98	115.97	54.9833	1066.56	21.0409	173.022	765.922	269.551	103.534	708.29	277.175	188.087	708.95	247.585	108.882	541.83	272.109	99.6038	526.084	160.925	194.086	777.707	-134.55	131.714	785.642	-146.715	144.254	714.628	-148.561	129.173	543.93	-145.007	107.137	526.107	-32.9368	22.5049	348.441	301.236	-0.527957	287.768	274.886	72.6112	316.348	292.279
12	0.055	89.6542	1583.13	193.852	90.0957	1580.86	-80.8836	211.963	1529.65	57.2556	65.9606	1602.12	53.1282	11.9345	1487.86	61.3832	242.438	1025.95	194.175	253.023	1030.62	-47.9349	54.8818	1069.99	115.973	54.9628	1066.57	21.0131	172.951	765.931	269.554	103.468	708.298	277.165	188.016	708.966	247.573	108.849	541.835	272.088	99.6579	526.093	160.91	194.117	777.705	-134.545	131.765	785.654	-146.759	144.23	714.655	-148.472	129.165	543.925	-145.001	107.156	526.087	-32.9556	22.4878	348.447	301.248	-0.55257	287.775	274.895	72.5791	316.351	292.278
13	0.06	89.6788	1583.12	193.864	90.0729	1580.66	-80.8661	211.987	1529.66	57.2754	66.042	1602.12	53.1109	11.9701	1487.87	61.384	242.406	1025.97	194.17	253.028	1030.63	-47.9181	54.8653	1070.01	115.95	54.9694	1066.57	21	172.876	765.936	269.585	103.394	708.28	277.171	187.966	708.957	247.582	108.81	541.832	272.07	99.617	526.07	160.933	194.109	777.698	-134.542	131.732	785.645	-146.707	144.308	714.614	-148.537	129.201	543.933	-145.005	107.163	526.091	-32.9339	22.4578	348.458	301.216	-0.563264	287.756	274.85	72.5478	316.331	292.275
